 <svg  version="1.0" xmlns="http://www.w3.org/2000/svg"  width="300.000000pt" height="450.000000pt" viewBox="0 0 300.000000 450.000000"  preserveAspectRatio="xMidYMid meet">  <g transform="translate(0.000000,450.000000) scale(0.050000,-0.050000)" fill="#d714bd" stroke="none"> <path d="M2661 4562 c-12 -22 -22 -78 -24 -126 l-2 -86 -15 70 -15 70 -5 -90 c-2 -49 -9 -74 -14 -55 -15 58 -45 39 -40 -25 2 -33 11 -60 20 -60 9 0 11 -18 4 -40 -7 -22 -4 -40 6 -40 27 0 43 -99 25 -148 -15 -40 -16 -40 -30 6 -11 34 -20 40 -31 21 -14 -22 8 -87 40 -119 6 -5 13 -28 16 -50 4 -22 20 -50 35 -62 35 -27 16 -50 -28 -33 -28 11 -29 8 -7 -19 17 -22 19 -37 5 -45 -20 -13 -29 1 -23 35 2 10 -8 10 -23 3 -19 -12 -20 -9 -1 11 32 35 -3 103 -45 87 -24 -9 -25 -17 -5 -41 13 -17 26 -40 28 -53 2 -13 11 -39 18 -58 11 -26 7 -33 -16 -24 -16 7 -37 1 -45 -13 -10 -16 -7 -19 8 -10 14 9 40 -5 63 -31 21 -26 39 -38 39 -26 1 12 -10 32 -23 45 -19 19 -14 24 19 24 37 0 43 -11 41 -70 -1 -38 -11 -70 -22 -70 -10 0 -9 -12 3 -27 13 -15 16 -34 8 -43 -8 -9 3 -10 25 -2 31 11 35 9 16 -9 -17 -18 -17 -33 -1 -60 17 -27 14 -47 -11 -86 -43 -66 -43 -72 6 -59 23 6 43 -1 48 -17 19 -58 26 -297 10 -297 -10 0 -18 13 -18 30 0 46 -104 249 -186 362 -41 57 -74 109 -74 116 0 15 -75 125 -114 167 -13 14 -29 44 -37 67 -14 46 -91 131 -112 124 -7 -3 -38 33 -70 80 -31 46 -67 91 -80 99 -13 8 -35 48 -48 88 -15 46 -29 63 -39 47 -12 -19 -18 -18 -26 3 -8 19 -11 20 -12 2 -1 -14 -15 -25 -32 -25 -41 0 -38 -73 4 -89 26 -10 29 -17 10 -29 -26 -16 100 -142 142 -142 22 0 94 -78 94 -102 0 -8 18 -21 40 -28 22 -7 36 -20 31 -29 -6 -9 8 -21 31 -27 25 -7 36 -21 28 -34 -8 -13 -35 -18 -60 -12 -29 7 -55 0 -72 -21 -29 -34 -33 -34 152 4 23 5 16 -3 -15 -17 -31 -15 -50 -33 -42 -40 7 -8 -6 -14 -30 -14 -23 0 -43 -8 -43 -18 0 -10 18 -14 40 -8 22 6 40 1 40 -12 0 -12 24 -22 54 -22 52 0 53 -2 20 -35 -34 -33 -39 -33 -118 10 -84 46 -135 43 -70 -5 71 -51 -7 -54 -104 -3 -130 68 -323 90 -363 42 -26 -32 -25 -34 21 -21 40 12 44 10 20 -8 -23 -18 -24 -26 -5 -33 14 -6 20 -20 13 -31 -7 -11 8 -9 33 4 41 22 44 21 34 -18 -11 -42 13 -58 34 -23 7 11 27 14 44 7 25 -9 29 -3 18 31 -10 32 -5 43 20 43 21 0 29 -11 22 -30 -7 -16 -5 -30 3 -30 38 0 17 -95 -32 -147 l-54 -57 74 47 c43 28 71 59 66 77 -4 17 -13 51 -20 77 -13 42 -10 44 29 24 23 -13 37 -31 31 -40 -5 -10 0 -43 12 -74 13 -32 27 -46 32 -32 5 14 18 20 28 14 10 -6 18 1 18 16 0 16 13 28 29 28 16 0 25 -7 20 -15 -5 -8 0 -21 12 -28 14 -9 10 -30 -12 -64 -17 -27 -28 -53 -23 -58 5 -5 23 13 41 40 17 27 43 47 57 45 45 -7 77 -35 64 -57 -8 -13 2 -16 28 -7 23 7 47 2 55 -11 10 -15 7 -19 -8 -10 -13 8 -23 3 -23 -12 0 -26 -175 -94 -355 -138 -47 -12 -81 -29 -75 -37 5 -9 -9 -40 -32 -68 l-41 -53 60 35 c86 49 102 15 27 -54 -122 -112 -25 -71 111 47 37 32 45 34 45 8 0 -50 59 -90 81 -55 15 24 18 23 19 -6 0 -19 9 -35 20 -35 27 0 25 -54 -3 -72 -12 -7 -29 -1 -38 14 -54 94 -74 108 -74 53 0 -30 9 -51 20 -49 33 7 101 -128 76 -153 -15 -15 -21 -10 -21 15 0 32 -4 33 -34 9 -29 -23 -31 -23 -17 3 9 17 -30 -15 -87 -70 -124 -119 -291 -376 -277 -425 6 -19 17 -53 24 -75 10 -29 6 -27 -15 8 -20 33 -33 40 -43 23 -24 -38 -25 -139 -2 -149 11 -5 8 -10 -9 -10 -18 -1 -30 -22 -30 -53 0 -39 8 -49 35 -42 42 11 95 -56 95 -122 0 -56 -62 -26 -102 50 -14 25 -35 43 -47 39 -11 -4 -56 22 -100 59 -43 37 -85 67 -92 67 -21 0 -37 99 -18 110 8 6 5 32 -8 58 -12 27 -29 44 -38 39 -9 -6 -14 -3 -11 7 11 30 -82 166 -113 166 -17 0 -31 9 -31 20 0 28 33 25 103 -11 92 -48 88 -23 -5 29 -44 26 -73 52 -65 59 9 7 24 22 34 33 10 12 12 6 6 -15 -7 -19 -3 -35 8 -35 10 0 19 9 19 21 0 12 32 -3 70 -33 47 -35 64 -61 53 -76 -12 -14 5 -37 49 -66 38 -24 68 -36 68 -25 0 10 -7 19 -17 19 -9 0 -16 12 -16 27 0 43 -133 192 -172 193 -19 0 -35 9 -35 20 0 11 -16 20 -36 20 -20 0 -47 11 -59 23 -104 104 -447 94 -737 -20 l-99 -39 -21 44 c-15 32 -14 51 3 67 18 16 30 11 45 -21 l22 -44 13 45 c11 35 20 41 40 24 18 -14 29 -15 38 0 8 12 5 21 -4 21 -10 0 -14 29 -8 65 10 63 11 63 25 15 10 -37 15 -40 16 -12 2 34 7 32 50 -14 l48 -51 -3 48 c-2 27 -8 49 -14 49 -6 0 -12 18 -14 41 -3 40 -2 40 43 -3 50 -48 105 -65 123 -37 5 9 25 12 43 5 22 -9 28 -5 18 11 -8 13 -26 22 -39 20 -36 -5 -133 40 -133 63 0 11 9 20 20 20 11 0 20 -8 20 -18 0 -10 15 -23 33 -30 27 -11 29 -8 7 18 -20 24 -20 30 3 29 15 0 53 -34 84 -75 l58 -74 -13 75 c-17 93 3 94 68 5 50 -69 80 -88 80 -50 0 11 -9 20 -19 20 -11 0 -30 19 -42 42 -30 56 42 20 141 -72 69 -63 154 -109 130 -70 -17 28 17 25 51 -5 15 -14 7 0 -20 30 -26 30 -52 51 -56 47 -5 -5 -24 6 -43 25 -88 84 -135 113 -169 106 -21 -3 -47 3 -59 15 -12 12 -38 22 -58 22 -20 0 -36 14 -36 31 0 19 9 26 23 17 15 -9 18 -5 9 9 -8 13 -23 18 -33 12 -37 -22 -18 32 25 75 28 28 46 35 51 20 5 -14 16 -20 25 -14 10 6 23 -7 30 -29 6 -21 24 -34 38 -29 17 7 31 -13 40 -56 9 -47 18 -58 30 -39 15 23 19 23 28 0 7 -17 11 -13 12 12 2 36 4 37 28 4 24 -33 26 -33 29 7 2 29 -17 54 -56 77 -32 18 -59 39 -59 47 0 29 -111 116 -136 106 -15 -5 -20 0 -13 12 8 13 -4 19 -32 15 -26 -4 -49 5 -55 21 -5 17 0 22 13 14 13 -8 23 -9 23 -3 0 7 -20 20 -45 30 -40 16 -37 19 25 20 53 1 63 6 40 21 -35 23 145 12 210 -12 35 -13 37 -11 14 16 -35 43 -160 101 -184 86 -11 -7 -31 -6 -44 3 -34 20 -119 28 -107 9 5 -9 -43 -15 -108 -14 -65 1 -114 6 -109 10 4 5 -3 21 -15 36 -18 21 -16 24 11 14 40 -16 380 11 362 28 -7 7 -45 11 -86 10 -72 -3 -73 -3 -14 13 33 9 110 18 170 20 150 5 217 32 120 48 -168 27 -323 29 -332 5 -11 -28 -128 -35 -128 -9 0 10 17 17 38 17 38 0 78 35 79 69 1 10 44 30 97 44 202 54 225 67 96 56 -66 -6 -138 -15 -160 -20 -40 -9 9 15 108 54 26 10 42 23 36 29 -9 9 -161 -40 -322 -104 -28 -11 -34 -8 -23 10 16 27 -168 21 -234 -7 -38 -16 -32 29 11 84 26 34 61 32 47 -3 -8 -23 2 -25 51 -11 33 10 66 17 73 16 52 -7 106 9 146 42 l47 38 -80 -11 c-44 -6 -117 -12 -163 -13 -45 -2 -99 -17 -120 -34 -102 -84 -107 -87 -107 -43 0 23 13 54 29 70 16 16 24 35 17 42 -12 12 26 20 61 14 10 -2 13 10 6 27 -6 17 -4 31 5 31 9 0 37 18 62 40 25 22 36 40 24 40 -12 0 -27 -9 -34 -20 -7 -11 -21 -20 -33 -20 -11 0 0 28 25 63 29 41 35 59 16 53 -15 -5 -50 -43 -77 -84 -28 -41 -54 -64 -58 -51 -5 15 -19 6 -35 -23 l-27 -48 -1 50 c-2 71 -36 9 -59 -105 -13 -65 -17 -72 -19 -29 -2 46 -7 51 -30 30 -19 -18 -22 -40 -10 -71 10 -25 9 -45 -1 -45 -9 0 -26 34 -37 75 -20 75 -20 75 -22 -39 -2 -90 -8 -112 -30 -104 -17 6 -33 -5 -41 -28 -14 -46 6 -108 31 -93 10 6 18 3 18 -8 0 -11 -11 -24 -25 -30 -20 -8 -20 -10 0 -11 14 -1 25 -18 25 -37 -1 -30 -3 -31 -20 -5 -17 26 -19 25 -20 -5 0 -19 9 -35 19 -35 11 0 32 -23 47 -51 26 -51 27 -48 60 84 25 105 27 139 8 151 -17 11 -14 15 9 16 18 0 38 22 45 50 7 28 22 50 32 50 25 0 26 -50 1 -95 -23 -44 -49 -147 -44 -178 2 -13 -5 -30 -16 -37 -12 -7 -21 -23 -21 -36 0 -14 8 -12 20 6 17 26 19 25 20 -5 0 -19 -8 -35 -17 -35 -9 0 -16 -13 -16 -30 0 -16 7 -30 16 -30 9 0 17 10 17 21 0 12 8 16 18 10 10 -6 13 -30 7 -53 -7 -29 -15 -34 -26 -16 -11 17 -26 0 -47 -51 -18 -41 -27 -82 -22 -91 5 -9 -4 -42 -20 -73 -35 -66 -43 -201 -9 -142 11 19 22 61 25 93 2 32 12 53 21 47 10 -5 25 2 35 17 13 22 17 20 18 -10 0 -40 38 1 92 98 13 24 48 43 85 46 72 7 75 14 32 58 -28 28 -27 36 14 80 27 28 34 43 16 37 -20 -8 -31 1 -33 27 -2 21 10 44 26 50 17 7 25 3 18 -8 -7 -11 2 -20 19 -20 17 0 29 -11 26 -25 -3 -15 12 -23 40 -19 63 9 59 -52 -4 -68 -27 -6 -58 -6 -68 0 -11 7 -26 4 -33 -8 -7 -11 1 -20 17 -20 16 0 34 -11 40 -25 8 -20 10 -20 11 0 1 14 11 25 21 25 11 0 15 -13 8 -30 -6 -16 -24 -30 -39 -30 -15 0 -28 -12 -28 -28 0 -15 -13 -38 -30 -52 -25 -21 -30 -18 -31 13 0 35 -2 35 -23 -3 -13 -22 -35 -52 -50 -66 -14 -15 -26 -42 -26 -61 0 -19 -18 -69 -39 -112 -22 -42 -35 -85 -28 -95 6 -10 -5 -36 -23 -57 -36 -38 -27 -112 10 -89 12 7 11 -9 -3 -39 -29 -63 -63 -65 -95 -6 -13 25 -19 29 -13 10 6 -22 -1 -35 -20 -35 -35 0 -35 2 -9 71 18 47 25 50 54 26 29 -23 32 -23 21 7 -9 22 -1 42 21 55 21 12 24 20 8 20 -19 1 -22 20 -13 71 9 46 6 70 -9 70 -12 0 -23 -34 -24 -75 -2 -41 -7 -59 -12 -40 -12 47 -46 45 -46 -3 0 -21 -9 -42 -20 -45 -47 -17 -76 -317 -30 -317 17 0 30 -17 30 -39 0 -56 -36 -70 -44 -16 -4 25 -10 -44 -12 -153 -4 -183 -2 -196 29 -170 26 22 35 22 42 3 14 -43 48 -27 41 20 -7 53 29 53 149 1 l75 -32 -37 -64 c-28 -47 -31 -63 -11 -63 14 0 25 5 25 11 -4 38 7 55 34 55 17 0 27 -9 23 -21 -49 -131 -58 -172 -47 -201 7 -18 21 -29 31 -22 28 17 47 116 24 130 -11 6 -13 23 -4 37 19 32 82 9 82 -29 0 -16 -10 -23 -22 -16 -15 10 -18 0 -8 -31 8 -25 6 -40 -4 -34 -9 6 -19 -33 -22 -86 -2 -56 6 -104 19 -112 15 -9 20 5 14 46 -5 34 2 70 18 84 23 22 26 13 17 -51 l-11 -77 24 84 c37 125 54 123 24 -3 -14 -61 -17 -106 -7 -100 10 6 19 -9 19 -35 2 -44 3 -44 19 -6 17 39 18 39 31 -5 17 -57 48 -39 51 31 l3 54 16 -60 17 -60 -8 60 c-4 33 -14 85 -21 115 -9 35 -6 55 9 55 12 0 21 -7 20 -15 -7 -40 4 -66 22 -55 12 8 21 -32 23 -104 2 -72 6 -90 11 -46 22 222 61 202 52 -28 -8 -237 30 -256 65 -32 18 112 49 52 34 -65 -13 -92 7 -98 33 -10 l18 65 2 -64 c1 -35 11 -69 22 -76 11 -7 20 -32 20 -56 0 -24 10 -57 22 -74 15 -22 17 3 7 90 -7 66 -22 131 -34 145 -11 14 -16 31 -9 37 6 7 25 -16 43 -50 37 -71 52 -79 41 -22 -4 22 -3 40 3 40 17 0 67 -56 67 -76 0 -11 19 -24 42 -30 28 -8 38 -3 31 14 -5 14 -2 37 7 51 11 19 19 15 29 -17 8 -23 22 -37 33 -31 10 6 27 -9 37 -35 18 -44 19 -43 21 14 l2 60 36 -68 c23 -44 39 -58 46 -40 15 39 -5 158 -26 158 -10 0 -18 14 -18 30 0 17 4 30 10 30 25 0 110 -91 110 -119 1 -23 5 -24 16 -6 11 16 25 1 41 -46 31 -85 55 -76 52 20 -1 39 5 71 14 71 10 0 17 -22 17 -49 0 -27 10 -55 23 -63 14 -9 18 -5 9 9 -8 13 -5 23 7 23 11 0 22 -16 23 -35 1 -21 5 -25 11 -10 15 36 67 31 67 -6 0 -17 9 -26 20 -19 11 7 20 30 20 51 0 52 30 49 69 -5 41 -60 39 -74 -14 -94 -44 -17 -44 -18 10 -32 55 -14 58 -33 24 -144 -4 -13 3 -27 16 -31 15 -5 21 -115 20 -356 -3 -420 6 -499 56 -499 24 0 34 12 30 35 -8 42 -18 593 -14 740 6 192 61 119 115 -155 6 -27 23 -90 37 -140 15 -49 36 -161 47 -247 15 -120 31 -168 64 -200 l45 -43 -23 44 c-35 69 -27 97 16 58 51 -46 79 -3 31 49 -18 21 -34 61 -34 89 0 28 -7 55 -17 61 -25 16 3 71 29 56 13 -8 16 -6 8 3 -8 9 -5 28 6 41 15 19 -3 50 -70 119 -108 112 -119 154 -20 78 87 -66 132 -42 70 37 -23 28 -41 62 -41 75 0 14 -17 18 -45 10 -27 -8 -35 -6 -21 4 18 13 3 42 -55 107 -79 89 -94 119 -61 119 10 0 13 18 8 41 -7 26 3 51 26 69 22 17 27 29 13 29 -32 1 -33 65 -1 97 18 18 14 21 -16 15 -34 -6 -38 2 -31 63 5 49 13 62 25 43 13 -20 17 -18 18 12 0 36 2 36 25 5 23 -31 29 -32 85 -1 33 18 80 32 104 30 34 -2 42 6 32 32 -12 31 -9 32 21 7 30 -24 32 -23 20 8 -9 24 -6 32 8 23 12 -7 25 -3 29 10 5 13 36 23 70 22 44 -2 66 10 80 41 19 42 69 -175 96 -416 5 -44 15 -120 22 -170 7 -49 23 -270 36 -490 l22 -400 58 -7 58 -6 -12 316 c-11 266 -9 311 13 282 15 -19 32 -29 39 -22 7 6 17 -10 24 -36 11 -42 110 -114 110 -80 0 25 -64 111 -151 203 -99 105 -156 385 -75 370 20 -4 41 -8 46 -9 6 -1 -2 -9 -17 -19 -31 -19 3 -162 38 -162 17 0 70 101 100 190 10 28 18 8 30 -70 14 -91 19 -101 31 -60 8 28 15 38 16 23 1 -18 17 -24 42 -17 23 6 40 0 40 -13 0 -13 9 -10 19 6 11 17 12 35 4 40 -8 6 -15 34 -15 61 1 38 -10 51 -44 52 -70 4 -91 88 -22 88 12 0 17 -14 10 -31 -8 -21 -4 -26 13 -15 14 8 34 16 45 16 11 0 25 27 31 60 l11 60 11 -55 c7 -31 4 -61 -5 -66 -18 -12 -10 -140 20 -297 9 -52 13 -111 8 -131 -5 -20 1 -43 14 -51 18 -11 20 -2 10 30 -13 40 -9 44 29 35 35 -10 41 -5 30 27 -7 22 -15 75 -18 119 -3 44 -20 96 -38 116 -41 45 -42 63 -4 63 15 0 34 -19 42 -43 10 -33 17 -36 31 -15 10 16 18 20 18 9 0 -10 13 -1 29 20 38 50 38 34 1 -71 -35 -98 -38 -125 -8 -75 11 19 33 35 50 35 23 0 25 9 9 39 -29 54 -26 76 5 33 24 -32 25 -32 25 5 0 22 -5 37 -11 33 -7 -4 -13 23 -14 60 -2 62 1 66 36 44 24 -15 38 -47 38 -84 1 -46 5 -53 20 -30 17 26 19 25 20 -3 0 -19 11 -37 24 -42 13 -4 16 -18 8 -32 -12 -19 -23 -17 -43 11 -15 20 -29 32 -30 26 -1 -5 -5 -28 -9 -50 -3 -22 -19 -112 -36 -200 -16 -88 -30 -178 -30 -200 0 -22 -7 -100 -15 -173 -15 -141 -1 -247 32 -227 10 7 19 55 19 108 0 53 14 124 31 159 18 34 26 80 20 101 -7 21 -4 44 6 50 18 11 11 190 -8 209 -17 18 34 60 61 50 17 -6 30 7 34 36 9 61 56 -236 56 -356 0 -187 61 -447 105 -447 31 0 37 10 28 45 -53 217 -120 792 -96 822 12 14 16 46 9 72 -10 39 -6 45 21 35 36 -14 46 16 12 37 -14 8 -9 22 14 38 32 24 31 27 -13 41 l-48 15 47 38 c44 36 45 43 22 115 -19 56 -20 95 -5 145 40 131 47 212 16 171 -16 -20 -26 -58 -23 -84 3 -27 -7 -53 -23 -59 -16 -6 -23 -20 -16 -31 7 -11 3 -20 -9 -20 -24 0 -29 132 -6 147 23 14 18 202 -5 207 -11 2 -25 24 -32 50 -10 39 -15 32 -30 -38 -14 -64 -25 -81 -45 -68 -44 27 -45 130 -2 213 21 43 39 69 39 58 0 -10 14 7 30 38 17 33 25 79 17 110 -11 51 -11 52 19 13 29 -37 34 -38 65 -7 38 37 14 152 -29 142 -31 -7 -50 47 -31 90 27 63 31 114 11 155 -44 89 -75 217 -65 267 9 47 13 43 29 -36 10 -49 37 -110 61 -134 24 -25 44 -54 46 -66 1 -12 3 -28 5 -37 1 -8 31 -31 67 -51 l65 -36 -69 62 c-79 70 -66 80 29 21 l65 -40 -16 85 c-9 47 -23 102 -31 123 -10 27 -8 34 9 24 12 -8 24 -34 25 -58 2 -36 5 -33 15 12 12 51 16 45 52 -66 35 -111 70 -131 70 -40 0 24 -3 25 -17 3 -11 -18 -24 4 -40 70 -37 150 -43 179 -30 152 6 -14 20 -20 30 -14 9 6 33 -20 51 -59 19 -39 40 -66 48 -61 9 5 11 -9 5 -31 -6 -22 -1 -40 12 -40 12 0 22 -18 22 -40 0 -22 9 -40 20 -40 11 0 20 20 20 44 0 43 1 43 29 5 25 -35 23 -44 -14 -84 -23 -25 -32 -45 -21 -45 12 0 27 14 33 30 21 54 58 34 45 -25 l-12 -55 29 50 c22 37 30 41 30 16 1 -52 40 -64 72 -23 26 35 28 33 28 -18 1 -30 -8 -55 -19 -55 -11 0 -20 -21 -20 -48 0 -55 -75 -88 -93 -41 -6 16 -19 24 -29 18 -10 -6 -18 -2 -18 10 0 11 18 21 40 21 22 0 40 -11 40 -25 1 -25 39 21 40 47 0 28 -142 15 -154 -14 -9 -25 -15 -26 -28 -5 -13 21 -33 21 -102 3 -58 -16 -90 -16 -98 -2 -9 14 -26 13 -54 -2 -53 -28 -72 13 -28 63 27 32 27 35 -11 35 -23 0 -45 11 -50 24 -6 19 -11 19 -23 0 -8 -13 -4 -24 9 -24 18 0 18 -7 1 -27 -23 -28 -10 -100 15 -85 32 20 9 -109 -23 -133 -20 -14 -38 -39 -41 -56 -3 -16 -16 -49 -30 -74 -20 -36 -19 -45 1 -46 16 0 12 -9 -9 -21 -19 -11 -35 -38 -35 -60 0 -22 8 -35 18 -29 28 17 45 -85 30 -186 l-13 -93 41 37 c55 49 149 229 133 255 -7 11 10 41 38 67 46 43 50 43 59 9 6 -20 -3 -47 -19 -60 -16 -14 -24 -37 -18 -52 6 -16 2 -23 -9 -16 -11 7 -20 1 -20 -14 0 -14 -6 -48 -13 -74 -8 -27 -5 -43 5 -37 10 6 19 -13 21 -42 3 -47 1 -49 -22 -18 -38 52 -53 18 -21 -46 33 -63 88 -66 114 -7 12 29 14 25 6 -16 -5 -29 -1 -59 10 -66 11 -7 20 -1 20 14 1 19 6 18 20 -4 16 -24 19 -21 20 15 0 25 9 45 20 45 11 0 21 29 22 65 2 36 6 51 11 34 15 -57 87 -86 87 -35 0 24 20 66 45 94 l45 50 -51 -32 c-47 -29 -50 -29 -50 6 0 44 80 45 116 2 18 -22 27 -19 46 17 l23 44 53 -57 c49 -54 69 -46 53 22 -3 11 -5 47 -4 80 0 49 -3 53 -16 20 -8 -22 -10 -48 -4 -58 6 -11 -5 -13 -24 -5 -20 7 -39 13 -43 13 -4 0 -3 13 3 28 6 15 1 34 -11 41 -30 19 -26 51 7 51 16 0 33 11 39 25 6 15 11 10 11 -11 1 -20 10 -31 20 -25 10 6 43 -49 74 -122 65 -154 82 -144 39 24 -42 160 -35 204 10 69 20 -60 38 -92 39 -70 3 40 3 40 20 0 34 -79 23 32 -13 125 -40 105 -27 122 64 79 66 -32 69 -38 57 -111 -8 -48 -4 -83 10 -92 14 -8 22 4 22 31 0 44 1 44 42 6 36 -32 40 -52 29 -136 -25 -184 -8 -1457 21 -1647 8 -54 19 -65 61 -65 l51 0 -14 185 c-50 623 -55 1610 -9 1599 72 -17 112 14 103 80 -13 88 76 35 104 -62 16 -57 69 -79 57 -24 -8 34 29 26 43 -10 7 -17 12 -50 12 -73 0 -42 1 -42 29 -4 30 40 43 -4 33 -113 -2 -18 6 -72 18 -120 12 -48 25 -106 28 -128 4 -22 8 -46 9 -53 2 -7 18 -19 37 -26 29 -11 29 -7 -4 29 -37 41 -37 41 1 27 33 -12 35 -10 14 17 -27 32 -15 96 18 96 11 0 13 11 5 24 -21 34 -25 176 -5 176 9 0 18 -20 18 -45 2 -43 3 -43 19 -5 15 35 18 32 20 -20 2 -51 5 -54 19 -20 9 22 12 47 7 55 -4 8 1 15 13 15 11 0 21 -23 21 -51 0 -28 8 -46 18 -40 10 6 28 -14 39 -44 l20 -55 1 61 c1 34 -9 72 -22 85 -19 19 -18 24 1 24 14 0 19 10 11 23 -9 14 -5 18 9 9 13 -8 23 -32 23 -54 0 -22 8 -35 19 -29 10 6 24 -7 31 -29 7 -22 21 -40 31 -40 10 0 13 16 7 35 -6 19 18 -14 54 -73 55 -92 67 -103 80 -70 13 33 15 33 17 4 1 -39 61 -27 61 12 0 42 -214 238 -241 221 -15 -9 -20 -7 -12 6 7 11 0 31 -16 44 -20 17 -26 56 -19 142 5 67 0 119 -10 119 -10 0 -34 6 -54 13 -23 10 -30 6 -20 -10 9 -14 0 -23 -26 -23 -22 0 -46 -10 -54 -23 -8 -14 -5 -18 7 -10 12 8 28 -5 35 -28 8 -24 25 -37 40 -32 14 6 31 -7 36 -28 11 -42 -52 -57 -76 -19 -7 12 -21 15 -31 9 -11 -6 -19 -1 -19 11 0 12 -8 17 -18 11 -10 -6 -23 12 -30 39 -7 28 -24 50 -38 50 -15 0 -73 24 -131 52 -111 56 -147 55 -91 -1 28 -29 30 -38 7 -52 -50 -31 -169 113 -142 173 28 62 58 61 87 -2 22 -50 56 -68 56 -30 0 11 -9 20 -20 20 -11 0 -20 9 -20 21 0 14 12 14 37 0 21 -11 43 -14 50 -7 7 6 18 -5 26 -26 14 -38 45 -67 71 -68 11 0 11 46 -2 124 -1 8 -15 10 -32 3 -19 -7 -30 1 -30 21 0 19 -13 38 -30 45 -16 6 -30 24 -30 39 0 15 -17 28 -37 28 -59 0 -130 73 -112 114 14 32 16 33 23 3 5 -18 26 -37 47 -43 22 -6 34 -2 28 8 -6 10 -6 18 1 18 20 0 72 -57 68 -74 -2 -9 16 -25 39 -36 24 -11 43 -28 43 -38 0 -11 33 -49 72 -85 59 -54 70 -76 60 -117 -7 -29 -4 -50 8 -50 11 0 20 15 20 33 0 39 86 119 96 88 4 -11 20 -21 36 -21 15 0 28 -15 28 -34 0 -29 4 -29 31 5 18 22 27 28 20 15 -6 -13 -5 -27 4 -33 19 -12 17 -118 -4 -151 -9 -14 -5 -36 7 -48 16 -16 22 -13 22 13 0 20 9 30 21 22 12 -7 19 -1 15 15 -3 15 3 27 14 27 11 -1 18 -8 15 -17 -9 -25 34 -94 58 -94 15 0 14 10 -2 29 -14 16 -18 40 -10 53 10 16 7 19 -11 8 -17 -11 -21 -8 -12 7 22 36 50 28 103 -30 l49 -53 0 172 c0 94 -8 177 -18 183 -31 19 -38 134 -9 145 37 14 34 119 -3 133 -16 7 -30 28 -29 47 0 33 3 33 30 -3 28 -38 29 -38 29 5 0 28 -12 44 -35 44 -30 1 -31 3 -5 20 23 16 16 20 -30 18 -64 -2 -149 14 -166 31 -6 6 -21 2 -33 -8 -15 -13 -42 -10 -76 8 -29 15 -56 21 -59 12 -3 -8 -46 -35 -96 -59 -145 -69 -170 -89 -172 -137 -1 -35 7 -43 35 -34 21 6 37 3 37 -7 0 -52 -87 -11 -95 45 -9 70 118 199 177 180 20 -6 38 3 46 22 7 19 25 28 42 22 16 -6 43 3 60 20 29 29 36 28 74 -6 42 -37 42 -37 16 13 l-25 50 57 -50 c31 -27 45 -34 30 -15 -48 62 -10 59 57 -4 104 -98 182 -79 101 24 -48 62 -50 78 -8 62 17 -7 39 -32 48 -55 16 -38 18 -37 19 13 0 30 -8 55 -19 55 -11 0 -20 10 -20 21 0 12 9 16 20 9 28 -17 25 17 -4 46 -13 13 -15 24 -5 24 10 0 20 23 22 51 2 31 -6 48 -20 43 -13 -5 -22 -23 -20 -41 1 -20 -12 -33 -35 -33 -46 0 -45 -6 -8 102 l30 88 -40 -50 c-21 -27 -39 -71 -40 -97 0 -38 -8 -45 -40 -37 -22 6 -36 3 -31 -5 5 -8 -17 -16 -50 -17 -47 -1 -61 9 -71 48 -7 27 -45 77 -85 110 -40 34 -55 53 -33 42 49 -25 168 -8 127 18 -15 9 -43 12 -62 6 -19 -6 -35 -2 -35 8 0 11 -20 26 -45 33 l-45 15 50 16 c43 14 44 17 10 20 -22 2 -29 8 -15 13 13 6 66 -18 116 -51 50 -34 106 -62 125 -61 61 1 -93 113 -188 137 -48 13 -88 28 -88 34 0 11 193 -7 270 -25 39 -9 39 -8 2 15 -21 13 -88 28 -150 33 -126 11 -222 40 -152 46 22 2 56 2 75 0 19 -2 35 5 35 16 0 11 37 26 82 33 48 8 74 22 64 32 -10 10 -47 9 -87 -2 -129 -37 -203 -3 -88 40 34 13 46 29 36 45 -9 16 -2 15 21 -4 33 -26 32 -30 -12 -55 l-46 -28 50 13 c78 21 80 32 29 149 -56 131 -67 215 -18 151 29 -38 29 -38 30 0 0 36 2 36 21 4 38 -65 52 -35 47 100 -3 74 -1 119 5 100 5 -20 17 -31 26 -25 9 6 29 -17 43 -50 31 -70 65 -81 49 -15 -8 31 -2 26 19 -15 27 -53 30 -54 20 -10 -6 28 -11 72 -11 99 0 47 -1 47 -30 10 -28 -36 -29 -35 -7 15 12 30 31 50 40 44 9 -6 17 1 17 15 0 29 48 -11 53 -44 1 -10 3 -29 5 -40 1 -12 10 -16 20 -10 11 6 23 -4 28 -24 8 -29 10 -28 12 6 1 23 -9 52 -23 66 -16 16 -18 30 -4 39 27 19 37 224 11 224 -43 0 -352 -252 -349 -285 1 -19 -4 -30 -13 -25 -22 14 -71 -48 -128 -163 -56 -111 -63 -136 -32 -117 22 14 28 -16 7 -37 -25 -24 -19 -117 7 -127 19 -8 20 -20 3 -51 -15 -29 -25 -34 -37 -16 -8 14 -57 30 -108 36 -51 6 -98 18 -103 27 -15 23 147 103 175 86 14 -9 17 -5 8 9 -10 15 -45 20 -96 14 l-81 -9 38 44 c32 38 29 37 -18 -4 -58 -52 -72 -74 -30 -50 15 8 18 7 8 -4 -9 -10 -27 -18 -40 -18 -12 0 -23 -13 -23 -28 0 -35 -42 -52 -59 -24 -7 11 4 37 23 57 20 20 37 50 39 66 7 60 81 238 94 226 7 -8 13 1 13 19 0 17 16 41 35 52 19 10 27 26 18 35 -26 27 -62 21 -77 -13 -8 -16 -9 11 -2 60 7 50 19 93 28 96 9 4 11 22 5 40 -6 19 8 5 31 -31 46 -72 53 -94 22 -75 -11 7 -14 -2 -7 -21 9 -23 17 -26 27 -9 11 18 19 18 29 2 24 -39 54 -24 40 21 -10 31 -7 38 12 26 16 -10 20 -7 11 8 -8 13 -22 19 -31 13 -26 -15 -41 44 -28 110 10 50 17 56 49 39 30 -16 38 -14 38 10 0 17 9 31 20 31 11 0 20 -17 20 -39 0 -21 8 -43 17 -49 19 -12 14 123 -8 191 -14 43 -13 43 21 10 23 -23 31 -53 24 -90 -12 -60 21 -133 39 -88 6 14 20 20 31 13 13 -9 15 9 6 52 -11 50 -8 63 13 55 15 -5 26 -24 24 -41 -1 -19 23 -40 60 -53 58 -19 60 -18 25 9 -23 17 -42 61 -46 105 -4 41 -21 85 -37 98 -25 18 -25 24 -3 33 44 16 75 -14 69 -67 -3 -30 4 -47 20 -44 13 3 38 -22 55 -55 42 -82 50 -76 49 35 -1 65 -7 83 -17 56 -11 -29 -19 -32 -31 -12 -17 26 19 60 64 61 14 0 25 11 26 25 0 14 18 -11 39 -55 l39 -80 0 112 1 111 -120 -16 c-228 -31 -611 -215 -622 -299 -4 -28 -9 -43 -35 -104 -13 -31 -23 -129 -23 -218 0 -158 -86 -396 -143 -396 -9 0 -17 -10 -17 -21 0 -12 9 -16 20 -9 18 11 27 -19 26 -82 -1 -27 90 -31 106 -5 14 23 108 22 108 -2 0 -10 -18 -24 -40 -31 -22 -7 -49 -30 -60 -51 -34 -62 -166 31 -172 121 -6 85 -8 91 -26 63 -10 -16 -15 12 -12 70 3 53 1 72 -4 41 -5 -30 -19 -54 -32 -52 -60 7 -69 -7 -71 -112 -3 -126 7 -136 47 -45 24 55 29 58 29 20 1 -32 13 -45 42 -45 46 0 49 -68 4 -72 -51 -6 -54 -11 -15 -28 38 -16 38 -17 -6 -19 -25 0 -50 13 -57 29 -6 17 -23 30 -37 30 -15 0 -31 11 -37 25 -6 14 -6 -20 -2 -75 l8 -100 -19 88 c-14 65 -13 97 5 119 16 19 18 32 4 36 -11 4 -18 46 -16 92 2 47 0 63 -5 35 -20 -100 -31 -113 -52 -60 -29 70 -45 14 -18 -62 18 -52 17 -60 -8 -51 -36 14 -39 -25 -7 -95 23 -51 7 -138 -19 -100 -43 64 -115 46 -79 -20 13 -23 24 -46 24 -52 1 -5 21 -30 46 -55 55 -55 57 -86 6 -99 -21 -5 -34 -20 -29 -33 19 -51 -68 -75 -101 -28 -34 48 -41 84 -13 66 10 -6 23 12 30 39 7 28 22 50 34 50 11 0 15 -9 8 -20 -7 -11 -3 -20 9 -20 11 0 21 14 21 30 0 17 -8 30 -18 30 -10 0 -28 25 -39 55 -18 50 -20 51 -21 10 -3 -67 -26 -56 -108 55 -41 55 -88 100 -104 100 -37 0 -38 -23 -5 -60 14 -16 6 -13 -17 6 -23 19 -47 28 -54 21 -7 -7 2 -26 21 -41 32 -26 31 -27 -10 -16 -25 7 -45 7 -45 1 0 -7 20 -21 45 -31 40 -18 41 -19 5 -18 -79 5 -102 -1 -74 -19 19 -12 20 -30 6 -69 -13 -33 -13 -57 -1 -64 10 -7 19 -2 19 11 0 15 25 20 69 15 37 -4 64 -1 58 8 -5 9 -38 17 -73 18 -35 0 -53 6 -39 11 14 6 20 18 14 28 -14 24 78 46 126 31 40 -13 55 -251 19 -307 -11 -17 -4 -25 23 -25 33 0 38 10 30 60 -5 33 -1 60 10 60 30 0 39 -45 21 -95 -18 -49 0 -59 38 -21 17 17 24 17 24 2 0 -13 -10 -26 -23 -30 -13 -5 -26 -24 -29 -43 -4 -30 0 -31 27 -9 28 22 31 21 19 -9 -8 -23 -3 -35 17 -35 16 0 29 -9 29 -20 0 -11 -8 -20 -18 -20 -10 0 -23 -14 -30 -31 -6 -17 -3 -26 6 -20 33 20 80 -12 112 -74 37 -75 38 -86 3 -51 -14 14 -52 44 -83 66 -31 22 -71 54 -89 71 -54 51 -156 84 -231 75 -57 -7 -70 -1 -70 29 0 20 -13 41 -30 48 -16 6 -30 21 -30 33 0 12 25 -3 56 -32 61 -59 105 -74 61 -21 -153 184 -677 367 -1052 366 -167 0 -211 8 -221 39 -5 16 0 22 12 14 12 -7 27 -3 34 8 16 27 -85 64 -133 49 -54 -17 -117 8 -117 47 1 27 4 29 18 6 14 -22 22 -19 40 14 16 31 37 39 83 33 53 -6 60 -2 49 32 -7 22 -3 39 9 39 11 0 21 14 21 31 0 43 49 -4 68 -66 l14 -43 69 41 c38 23 69 32 69 21 0 -42 -153 -100 -174 -66 -18 28 -23 28 -53 -2 -34 -34 -12 -70 27 -46 11 7 20 -1 20 -17 0 -39 101 -63 123 -29 13 21 16 20 17 -2 0 -16 6 -23 13 -16 7 8 24 5 38 -7 17 -14 28 -11 37 12 6 17 20 26 30 20 10 -6 16 11 13 39 -8 69 30 62 84 -15 30 -43 45 -53 45 -31 0 19 9 39 20 46 12 7 20 6 18 -4 -6 -36 3 -72 15 -60 7 8 26 3 41 -9 21 -18 24 -16 14 10 -7 18 -20 33 -30 33 -10 0 -18 13 -18 29 0 16 -17 27 -39 26 -21 -2 -33 -12 -27 -22 7 -11 2 -13 -11 -5 -16 10 -17 26 -2 53 11 22 13 39 5 39 -21 1 39 39 60 40 9 0 11 -9 4 -20 -7 -11 -3 -20 9 -20 11 0 21 -16 21 -35 1 -30 3 -31 20 -5 11 17 20 23 20 14 0 -8 12 -4 27 10 16 14 24 37 19 50 -7 17 9 15 52 -6 34 -17 62 -40 62 -51 0 -10 9 -14 20 -7 12 7 34 -19 51 -59 33 -80 51 -93 34 -26 -7 31 -4 39 10 25 12 -11 24 -38 28 -60 4 -22 23 -40 41 -40 19 0 48 -18 64 -40 29 -38 31 -37 31 25 1 36 -8 65 -18 65 -11 0 -29 36 -41 80 -12 44 -29 80 -39 80 -9 0 -23 15 -30 34 -11 29 -7 29 29 -4 30 -27 47 -31 63 -15 17 17 43 13 100 -16 42 -22 77 -31 77 -19 0 11 -7 20 -16 20 -9 0 -47 27 -84 60 -37 33 -78 60 -92 60 -14 0 -28 8 -31 18 -4 10 -43 20 -87 23 -135 8 -156 3 -142 -36 11 -32 10 -32 -16 1 -18 24 -33 29 -41 15 -8 -12 -22 -16 -32 -10 -11 6 -19 0 -19 -13 0 -17 -11 -15 -35 6 -19 16 -53 36 -74 44 -33 12 -35 17 -11 32 17 11 38 10 53 -3 16 -12 38 -13 61 -1 20 10 49 14 64 9 17 -6 22 -1 14 12 -19 31 13 29 47 -2 21 -20 24 -20 13 0 -18 32 -15 31 88 -5 102 -36 127 -38 108 -7 -10 17 -3 19 23 9 21 -8 31 -7 22 2 -9 8 -71 32 -139 52 -68 20 -155 45 -194 56 -146 43 -176 43 -101 2 l68 -39 -46 -24 c-48 -26 -151 6 -130 41 15 24 -67 42 -102 23 -25 -15 -12 -26 62 -54 l95 -36 -48 -37 c-26 -20 -70 -42 -98 -49 -27 -7 -54 -18 -60 -26 -47 -62 -180 -92 -180 -41 0 11 9 15 20 8 11 -7 20 -3 20 7 0 11 -17 26 -39 33 -21 6 -42 27 -47 46 -7 25 -10 22 -12 -11 -1 -25 -21 -66 -44 -93 -46 -53 -111 -56 -102 -5 3 19 -8 33 -26 33 -18 0 -28 8 -22 17 6 10 34 13 62 8 28 -6 50 0 50 12 0 12 -15 16 -33 9 -23 -9 -29 -5 -19 11 8 13 3 24 -12 24 -14 1 -6 10 19 20 29 11 40 28 33 48 -7 18 -2 31 12 31 20 0 20 6 0 30 -23 28 -14 39 26 32 10 -2 12 5 6 15 -6 10 7 38 28 63 48 55 50 68 10 53 -16 -7 -30 -3 -30 8 0 10 12 19 28 19 15 0 42 22 60 49 40 61 40 73 2 58 -16 -6 -30 -2 -30 10 0 11 18 26 41 33 23 7 72 44 109 82 38 37 82 68 97 68 16 0 33 12 39 26 12 31 166 81 194 64 11 -7 20 2 20 19 0 24 -22 31 -94 31 -87 0 -91 2 -55 30 36 28 35 29 -17 10 -81 -29 -82 -27 -31 44 50 70 32 63 -108 -41 -87 -65 -235 -255 -235 -302 0 -38 -46 -119 -74 -130 -17 -6 -23 -2 -14 12 8 13 3 18 -14 12 -15 -5 -26 -19 -24 -31 3 -11 -9 -26 -26 -32 -21 -8 -27 -3 -20 13 7 14 18 41 24 60 7 19 19 35 28 35 8 0 15 38 15 84 0 66 11 93 53 130 30 25 43 46 30 46 -84 0 159 169 291 202 50 12 91 31 91 40 0 31 -86 19 -202 -29 -145 -60 -149 -23 -11 98 130 113 114 128 -30 29 -62 -43 -117 -73 -123 -67 -6 6 -39 -28 -73 -76 -34 -48 -80 -107 -103 -132 -43 -46 -41 -145 2 -145 11 0 20 -19 20 -42 0 -28 -9 -39 -28 -32 -44 17 -55 -9 -17 -38 31 -23 30 -25 -15 -16 -46 10 -47 9 -14 -18 31 -26 32 -31 3 -41 -17 -7 -26 -22 -19 -33 7 -11 23 -15 36 -9 13 7 7 -2 -13 -18 -77 -62 -164 38 -104 118 39 51 39 91 1 76 -22 -8 -27 -2 -18 21 7 17 20 27 30 21 10 -6 18 0 18 15 0 14 6 45 12 68 8 32 0 45 -31 53 -46 13 -46 129 1 221 15 29 2 22 -40 -22 -75 -80 -77 -74 -12 39 51 89 65 185 31 206 -10 7 -28 -6 -40 -27z m587 -494 c41 -16 21 -48 -29 -48 -39 0 -51 22 -26 47 17 16 16 16 55 1z m-554 -356 c-8 -19 0 -25 25 -18 43 11 68 -42 44 -90 -10 -19 -18 -64 -19 -101 -2 -73 -24 -117 -24 -46 0 24 -9 43 -19 43 -11 0 -15 26 -8 60 7 36 4 60 -9 60 -29 0 -39 65 -15 94 28 33 38 32 25 -2z m253 -47 c-31 -74 -87 -152 -100 -138 -4 3 7 35 25 71 17 35 35 79 38 98 4 19 8 36 8 39 1 3 15 5 31 5 25 0 25 -10 -2 -75z m-2535 -156 c-37 -27 -31 -103 6 -80 10 6 8 -11 -5 -39 -21 -46 -52 -61 -103 -51 -11 3 -13 -2 -5 -11 16 -16 -40 -88 -68 -88 -26 0 -20 40 11 71 16 16 32 38 36 50 4 12 22 23 41 26 19 3 41 13 49 22 9 10 5 11 -9 3 -14 -8 -25 -5 -25 7 0 14 -13 13 -39 -3 -22 -14 -46 -18 -54 -10 -21 21 20 55 69 59 23 2 46 20 51 41 6 21 20 32 32 25 11 -7 21 -2 21 11 0 14 7 18 15 10 8 -9 -2 -28 -23 -43z m-306 -34 c28 -30 42 -122 16 -106 -21 13 -65 131 -50 131 6 0 21 -11 34 -25z m497 -56 c-26 -21 -37 -39 -25 -39 12 0 22 -8 22 -18 0 -10 -18 -14 -40 -8 -51 14 -52 66 -1 66 21 0 44 9 51 20 7 11 19 20 26 19 8 0 -7 -18 -33 -40z m1768 -40 c46 -51 14 -79 -79 -68 -58 7 -60 6 -23 -22 21 -16 29 -29 17 -29 -11 0 -32 13 -45 28 -27 34 1 58 47 40 35 -13 45 22 12 42 -22 14 -8 50 18 50 9 0 33 -19 53 -41z m77 -91 c18 -7 27 -20 21 -30 -6 -10 3 -18 20 -18 17 0 31 -9 31 -21 0 -11 -26 -7 -60 11 -77 40 -87 87 -12 58z m392 -67 c-32 -77 -60 -78 -60 -2 0 39 11 61 35 66 50 11 53 3 25 -64z m-2468 -6 c-6 -42 -75 -135 -99 -135 -16 1 -16 5 -2 15 12 8 33 44 48 80 25 63 62 90 53 40z m2219 -62 c1 -1 16 -27 35 -57 24 -39 29 -66 15 -100 -10 -25 -19 -34 -20 -20 0 15 -9 21 -19 15 -32 -19 -170 151 -139 172 21 14 123 6 128 -10z m2889 2 c0 -10 -16 -13 -35 -7 -59 18 -119 -41 -89 -88 26 -43 24 -46 -24 -28 -18 7 -26 22 -19 35 9 17 6 17 -12 0 -16 -14 -22 -56 -18 -105 7 -74 4 -82 -37 -82 -26 0 -47 11 -48 25 -1 14 -14 -15 -28 -65 -24 -82 -49 -44 -31 48 2 10 -9 26 -23 35 -19 12 -17 16 10 17 19 0 41 16 48 35 7 19 30 47 50 61 20 15 31 35 25 45 -6 11 7 19 28 19 22 0 45 16 51 35 12 37 152 55 152 20z m-4697 -35 l47 -39 -73 8 c-53 6 -77 0 -85 -21 -7 -17 -22 -24 -35 -16 -16 10 -20 1 -12 -29 6 -24 3 -48 -7 -54 -10 -6 -19 9 -19 35 l-2 46 -18 -47 c-11 -26 -14 -55 -8 -65 6 -10 1 -18 -11 -18 -37 0 -100 40 -100 63 0 16 7 16 26 1 16 -14 36 -15 55 -3 16 10 19 19 7 19 -38 0 -7 96 34 106 21 6 39 0 40 -13 1 -15 4 -15 11 2 6 14 23 25 39 25 15 0 28 9 28 20 0 31 31 24 83 -20z m1687 -52 c42 -36 48 -47 20 -37 -22 7 -56 18 -75 24 -19 5 -35 22 -35 37 0 40 22 34 90 -24z m60 -110 c90 -83 146 -208 121 -272 -6 -16 -1 -48 12 -71 18 -34 16 -47 -12 -66 -21 -16 -25 -28 -10 -33 18 -6 18 -59 2 -217 -12 -115 -24 -324 -26 -464 -4 -217 -9 -255 -36 -255 -27 1 -27 3 -2 19 48 30 6 50 -51 24 -41 -19 -59 -19 -85 1 -28 22 -30 22 -11 -4 17 -24 7 -44 -45 -97 -37 -36 -67 -60 -67 -52 0 9 -19 -2 -41 -22 -35 -31 -44 -33 -59 -9 -24 39 -6 60 51 60 43 0 46 5 29 50 -15 39 -13 50 10 50 17 0 30 -15 30 -34 0 -26 5 -29 24 -10 19 19 19 29 0 48 -13 13 -24 41 -24 62 0 33 -5 35 -31 13 -23 -19 -36 -20 -54 -2 -17 17 -14 23 13 23 32 0 33 4 9 34 -24 29 -23 32 8 20 20 -7 35 -3 35 9 0 12 18 17 40 11 22 -6 44 -3 50 6 6 9 28 12 50 6 31 -8 38 -3 28 22 -7 19 -35 32 -67 32 -35 0 -54 11 -54 30 0 17 16 30 36 30 21 0 37 -9 37 -19 0 -11 34 0 75 25 67 39 70 45 30 50 -25 4 -45 14 -45 23 0 9 -22 22 -49 29 -28 7 -45 23 -40 37 15 39 -174 38 -203 0 -13 -19 -32 -25 -48 -15 -20 13 -18 22 11 43 50 36 24 56 -32 23 -35 -20 -46 -21 -53 -1 -14 37 -35 31 -91 -25 l-50 -50 -13 63 c-14 72 3 192 30 208 10 6 18 37 18 68 0 31 15 68 33 83 29 25 31 21 16 -42 -9 -39 -17 -97 -18 -130 -1 -33 -14 -71 -31 -84 -19 -16 -21 -25 -6 -25 13 -1 36 17 52 39 15 22 34 34 41 27 12 -13 22 72 14 128 -1 14 7 25 18 25 12 0 21 -17 21 -39 0 -21 8 -44 19 -50 32 -20 40 20 13 71 -26 52 -21 98 16 123 35 23 52 18 52 -17 0 -20 -11 -28 -30 -21 -36 14 -37 10 -5 -50 23 -44 27 -45 58 -14 18 18 27 41 19 50 -24 29 -63 209 -51 229 21 33 69 -22 69 -79 0 -29 10 -66 22 -83 16 -23 18 -16 9 30 l-13 60 50 -60 c54 -64 71 -47 23 23 -16 23 -23 48 -15 56 8 8 2 11 -14 8 -15 -4 -31 3 -35 14 -18 50 104 18 138 -36 19 -30 44 -55 56 -55 34 0 0 84 -55 135 -55 52 -69 56 -55 18 6 -15 -3 -26 -22 -26 -23 0 -29 12 -21 41 6 23 12 53 12 67 0 14 9 25 20 25 11 0 20 -13 20 -29 0 -15 17 -34 39 -41 21 -6 57 -41 79 -76 46 -71 54 -53 20 43 -12 35 -29 59 -38 53 -8 -5 -28 6 -43 25 -24 31 -23 32 6 9 49 -38 70 9 25 58 -35 39 -35 40 19 19 50 -19 52 -17 33 18 -30 58 -57 67 -92 32 -17 -17 -39 -27 -48 -21 -9 5 -12 -8 -6 -30 16 -59 -39 -50 -67 10 -13 28 -15 45 -5 39 10 -6 18 -1 18 11 0 12 8 17 19 11 10 -6 24 -3 31 9 7 11 3 20 -9 20 -11 0 -21 14 -21 31 0 23 12 28 43 18 28 -9 38 -6 28 9 -27 44 12 20 99 -60z m386 11 c8 -8 -1 -10 -20 -3 -24 8 -31 4 -23 -17 16 -42 -21 -36 -63 11 -35 39 -35 40 28 32 35 -4 70 -14 78 -23z m-2150 -57 c83 -63 59 -105 -81 -143 -72 -19 -156 -47 -186 -62 -69 -35 -132 -17 -90 25 16 15 39 28 52 28 19 0 19 7 0 29 -13 16 -39 24 -57 18 -27 -9 -28 -7 -6 9 19 14 47 8 95 -20 57 -34 67 -35 67 -9 0 21 12 28 35 20 25 -8 28 -6 9 8 -14 10 -20 35 -13 57 6 21 -3 13 -20 -17 -18 -30 -37 -55 -43 -55 -5 0 -1 15 9 34 14 25 10 41 -14 60 -28 22 -28 24 -2 15 18 -6 54 -2 80 9 69 27 123 25 165 -6z m1434 -37 l43 -65 -13 60 c-15 69 -13 67 50 -39 26 -43 37 -71 24 -63 -15 9 -30 -2 -40 -28 -14 -39 -19 -36 -57 34 -81 146 -86 218 -7 101z m3293 37 c30 5 65 -18 118 -76 l75 -83 -48 -20 c-26 -10 -56 -17 -66 -15 -10 2 -25 -6 -33 -19 -10 -17 -26 -17 -61 2 -48 26 -48 26 32 62 44 20 69 37 55 39 -14 2 -36 5 -50 7 -40 6 -130 -45 -164 -93 -17 -25 -31 -37 -31 -27 0 10 -12 3 -26 -17 -24 -32 -29 -33 -53 -4 -20 24 -20 32 -1 32 13 0 19 13 13 28 -11 30 37 61 108 70 38 4 -2 42 -47 44 -41 2 -41 3 6 18 28 9 43 17 34 18 -8 1 -4 15 10 30 16 16 38 22 56 12 17 -8 49 -12 73 -8z m-2459 -45 c-2 -29 7 -57 21 -61 15 -6 25 8 25 32 0 24 13 42 30 42 19 0 30 -19 30 -53 0 -67 18 -52 24 19 3 36 11 46 27 33 13 -10 28 -13 35 -6 7 6 18 -10 24 -38 10 -39 23 -47 61 -40 43 8 49 2 49 -48 1 -77 38 -138 42 -67 1 28 1 66 -1 85 -6 59 18 39 51 -44 18 -44 38 -78 45 -75 7 2 16 -5 19 -16 4 -11 19 -33 33 -50 48 -54 113 -202 107 -241 -5 -29 -49 5 -199 152 -107 104 -201 189 -209 189 -9 0 -5 -11 8 -24 24 -24 34 -96 13 -96 -36 0 -229 153 -229 182 0 20 81 -3 135 -38 29 -18 45 -21 45 -6 0 12 -13 22 -29 22 -16 0 -43 20 -60 44 -17 25 -31 34 -31 21 0 -29 -83 -24 -104 5 -8 11 -25 20 -39 20 -13 0 -28 14 -33 30 -5 17 -3 24 5 17 8 -8 32 4 53 25 50 50 56 48 52 -15z m1864 25 c18 -21 16 -35 -7 -58 -17 -17 -31 -60 -31 -94 0 -35 -19 -90 -41 -122 -23 -32 -34 -58 -25 -59 9 0 0 -9 -19 -21 -33 -19 -33 -22 4 -61 21 -23 48 -35 59 -28 12 7 22 4 22 -8 0 -11 -11 -21 -25 -22 -14 0 -9 -9 10 -21 19 -11 35 -32 35 -47 0 -14 13 -52 29 -83 19 -36 23 -64 10 -79 -10 -12 -12 -30 -4 -39 8 -9 -1 -11 -20 -4 -23 8 -35 3 -35 -15 0 -16 -10 -35 -23 -43 -14 -9 -18 -5 -9 8 8 13 4 41 -8 64 -17 32 -15 40 9 40 35 0 44 90 11 110 -12 7 -15 23 -7 34 8 13 4 16 -10 8 -13 -8 -23 -4 -23 8 0 12 -7 18 -16 12 -22 -13 -90 103 -75 127 7 10 -8 59 -32 109 -49 101 -43 123 26 101 45 -14 45 -16 7 -31 -38 -14 -38 -15 5 -17 31 -1 45 11 45 37 0 20 13 48 30 62 16 13 24 34 17 45 -7 12 -4 15 9 8 29 -18 47 15 31 57 -10 27 -16 28 -29 7 -13 -21 -17 -19 -18 8 0 42 65 47 98 7z m-2238 -12 c0 -11 9 -20 20 -20 32 0 93 -70 85 -96 -13 -37 -80 8 -115 77 -18 34 -22 59 -11 59 12 0 21 -9 21 -20z m2391 -103 c18 -34 40 -51 58 -45 20 8 25 0 18 -28 -6 -22 1 -61 15 -87 14 -26 28 -69 31 -95 3 -26 14 -57 25 -68 13 -13 13 -33 0 -57 -24 -46 -56 -47 -87 -4 -21 28 -30 22 -65 -50 -44 -89 -66 -89 -66 0 0 31 -9 57 -20 57 -30 0 -24 28 17 72 20 21 32 51 27 66 -5 16 2 23 18 18 15 -5 32 -30 38 -56 19 -80 67 -77 50 3 -24 106 -48 160 -68 148 -11 -6 -23 0 -28 14 -4 14 -5 5 -1 -20 4 -25 -1 -45 -13 -45 -20 0 -23 10 -30 103 -2 29 -10 67 -16 85 -42 107 41 98 97 -11z m-1291 41 c0 -44 86 -217 102 -207 10 6 13 -2 6 -18 -6 -16 -1 -35 11 -42 11 -7 21 -22 21 -33 0 -62 -103 66 -130 162 -18 61 -37 127 -43 148 -7 24 -3 32 11 23 12 -7 22 -22 22 -33z m2053 -72 c-8 -8 6 -25 31 -39 61 -34 25 -33 -74 1 l-80 28 60 9 c33 5 64 10 68 12 5 2 2 -3 -5 -11z m-2806 -131 c-5 -8 1 -15 14 -15 14 0 20 -20 14 -50 -8 -41 -4 -46 18 -28 33 28 34 18 6 -56 l-22 -56 42 45 c55 58 65 57 48 -8 -9 -36 -3 -60 17 -75 16 -12 39 -58 51 -102 l21 -80 3 70 4 70 29 -95 c16 -52 37 -95 46 -95 18 0 42 -138 48 -275 2 -53 13 -85 29 -85 14 0 25 -9 25 -20 0 -39 4 -50 27 -79 18 -22 17 -25 -2 -14 -14 9 -25 6 -25 -6 0 -11 8 -21 18 -21 9 0 22 -18 28 -40 6 -22 2 -40 -7 -40 -32 0 35 -173 72 -188 21 -8 23 1 9 38 -12 33 -11 53 4 62 12 8 17 6 11 -4 -6 -10 2 -30 17 -44 30 -28 34 -17 16 48 -9 32 -23 40 -63 32 -36 -7 -47 -3 -36 14 8 14 27 20 42 14 15 -6 33 -2 40 9 6 10 31 19 55 19 29 -1 35 -6 20 -16 -14 -9 -26 -66 -28 -131 -3 -80 -11 -108 -25 -94 -30 30 -53 26 -53 -8 0 -15 18 -34 40 -41 22 -7 40 -26 40 -41 0 -16 -18 -29 -40 -29 -22 0 -40 8 -40 18 0 10 -22 23 -48 30 -35 9 -46 22 -38 50 6 23 -8 54 -36 80 -25 23 -38 42 -28 42 26 0 -126 154 -218 222 -43 32 -101 58 -130 58 -29 0 -43 -7 -32 -15 75 -56 27 -74 -65 -25 -106 57 -122 52 -111 -32 9 -67 7 -70 -32 -49 -29 16 -42 16 -42 1 0 -33 57 -47 89 -21 29 24 66 -39 43 -75 -6 -10 3 -17 19 -17 16 0 29 11 29 26 0 14 19 36 42 48 25 13 38 14 30 3 -28 -46 10 -78 82 -70 65 7 70 4 45 -25 -23 -28 -22 -36 6 -51 18 -11 46 -32 62 -48 25 -24 33 -24 61 8 18 19 26 41 19 49 -8 7 -2 13 12 13 16 0 22 -15 15 -40 -6 -22 -2 -40 9 -40 11 0 14 -9 7 -20 -7 -11 -30 -20 -52 -20 -48 0 -198 -97 -198 -129 0 -13 -47 -34 -105 -48 -58 -13 -125 -29 -149 -36 -39 -10 -43 -4 -42 68 0 44 -11 112 -26 152 -25 71 -11 126 21 75 12 -19 20 -20 30 -3 15 23 -18 78 -63 107 -29 18 -34 639 -6 766 9 43 21 139 25 213 9 149 25 183 64 130 31 -43 60 -46 44 -6 -6 17 -2 35 9 42 11 7 29 36 40 65 l20 52 47 -59 c26 -32 43 -66 38 -74z m314 -135 c10 0 31 -25 48 -55 22 -41 30 -46 30 -19 1 56 36 21 36 -36 0 -59 -22 -64 -59 -15 -33 44 -116 115 -116 99 0 -6 39 -54 87 -106 90 -98 133 -104 124 -18 -7 60 40 68 59 10 7 -22 25 -40 39 -40 14 0 31 -19 38 -43 8 -32 5 -37 -12 -20 -35 35 -55 28 -58 -22 -2 -25 -9 -4 -17 45 l-14 90 -5 -80 c-3 -44 -7 -93 -8 -110 -2 -16 -15 -27 -31 -24 -19 4 -24 -7 -16 -36 9 -34 6 -38 -17 -19 -15 13 -27 38 -25 56 9 124 -59 211 -109 137 -9 -13 -11 0 -4 30 10 41 0 67 -39 110 -74 79 -50 167 24 93 15 -15 35 -27 45 -27z m2451 3 c-6 -9 2 -34 18 -55 17 -23 29 -28 29 -12 1 19 11 20 40 4 50 -26 102 -183 65 -195 -13 -5 -18 -18 -11 -30 8 -13 4 -15 -11 -6 -14 8 -20 27 -14 42 6 17 0 23 -17 16 -16 -5 -37 7 -48 28 -18 33 -40 37 -172 32 l-152 -6 10 52 c12 66 29 83 50 49 22 -36 63 -9 47 31 -9 22 -4 29 16 22 15 -5 27 -18 25 -27 -1 -10 19 -40 45 -68 27 -27 48 -38 48 -25 0 13 14 19 30 12 22 -8 27 -2 18 21 -7 17 -19 27 -28 22 -26 -16 -37 36 -17 75 10 19 23 35 29 35 6 0 6 -8 0 -17z m-4623 -34 c17 -18 31 -41 31 -51 0 -25 -64 8 -99 51 -36 43 24 43 68 0z m-849 -55 c0 -5 -25 -17 -55 -25 -59 -16 -72 -20 -137 -40 -31 -9 -46 -2 -55 24 -7 21 -18 48 -24 60 -8 16 3 20 30 13 30 -8 39 -22 30 -48 -6 -21 -2 -38 10 -38 11 0 21 8 21 18 0 39 128 96 155 70 14 -14 25 -29 25 -34z m620 21 c0 -9 20 -25 45 -36 25 -12 55 -41 67 -65 12 -24 42 -78 67 -119 25 -41 37 -75 28 -75 -9 0 -39 41 -65 91 -30 55 -54 82 -63 68 -9 -15 -18 -16 -27 -3 -7 11 -2 24 12 29 27 9 -96 106 -154 121 -22 6 -11 9 25 8 36 -1 65 -10 65 -19z m-137 -110 c37 -95 54 -185 35 -196 -10 -6 -19 5 -20 25 0 21 -5 26 -11 11 -17 -41 -47 -28 -48 20 -1 34 -5 37 -15 14 -17 -37 -127 -40 -139 -4 -6 19 4 21 43 6 42 -16 52 -14 52 12 0 21 -11 27 -32 19 -23 -9 -29 -4 -21 17 6 16 3 35 -8 42 -10 6 -18 22 -17 35 1 17 4 16 12 -2 7 -19 17 -20 36 -4 21 18 24 13 15 -22 -8 -30 -4 -40 12 -30 13 8 23 5 23 -7 0 -11 13 -21 28 -21 16 0 34 -11 41 -25 15 -33 -2 85 -20 130 -7 19 -8 35 -1 35 7 0 23 -25 35 -55z m3822 -48 c-35 -35 -70 16 -44 65 l25 47 18 -48 c9 -26 10 -55 1 -64z m872 46 c-5 -39 5 -64 23 -53 11 7 20 4 20 -7 0 -18 -46 -43 -78 -43 -9 0 -15 31 -15 68 0 48 7 65 26 58 14 -5 25 -16 24 -23z m-797 -2 c0 -10 15 -33 33 -51 24 -24 27 -38 10 -55 -13 -13 -22 -46 -22 -74 2 -46 3 -47 19 -11 16 38 17 38 19 -4 1 -33 10 -42 36 -33 29 9 30 7 5 -10 -34 -24 -142 -11 -161 19 -27 43 -91 -11 -81 -68 2 -10 -6 -11 -18 -4 -11 7 -20 1 -21 -14 0 -14 -14 5 -30 42 -23 53 -36 63 -54 45 -36 -36 -50 -28 -59 38 -7 46 0 66 30 82 28 15 35 15 25 -1 -7 -12 -3 -38 9 -57 21 -33 22 -32 11 2 -8 28 -4 34 19 26 39 -15 38 -4 -4 63 l-34 54 45 -39 c44 -38 45 -38 32 0 -12 39 -12 39 19 0 36 -43 43 -80 12 -61 -11 7 -20 3 -20 -9 0 -11 7 -22 15 -23 8 0 31 -4 51 -8 20 -4 41 6 47 21 6 16 19 24 28 18 9 -5 11 22 5 61 -7 45 -3 70 11 70 13 0 23 -8 23 -19z m-4495 -60 c-49 -41 -60 -71 -19 -55 16 6 27 -7 28 -33 1 -24 -2 -33 -7 -21 -10 25 -107 12 -107 -14 0 -10 -8 -18 -18 -18 -34 0 22 132 65 154 74 36 108 29 58 -13z m117 -21 c10 0 15 -22 10 -48 -5 -28 6 -63 27 -86 19 -21 41 -51 47 -67 7 -16 8 4 1 44 -19 130 6 171 65 103 43 -50 45 -58 16 -80 -43 -31 -21 -150 25 -132 17 6 23 17 14 24 -24 17 -30 62 -9 62 17 0 49 -75 44 -105 -1 -8 7 -15 18 -15 11 0 21 25 22 55 2 34 6 42 12 20 5 -19 22 -35 37 -35 16 0 29 -14 29 -31 0 -17 9 -26 20 -19 14 8 17 -16 11 -69 -12 -89 10 -107 45 -36 16 34 22 37 23 11 0 -18 20 -36 45 -40 30 -4 49 -26 61 -72 9 -37 25 -60 37 -53 11 7 26 -7 32 -31 18 -66 45 -8 46 96 0 48 12 99 26 113 22 22 25 8 18 -82 -8 -91 -2 -116 31 -147 48 -45 65 -33 65 45 0 33 8 52 20 45 11 -7 21 -73 21 -146 1 -93 7 -122 19 -94 15 36 17 34 19 -14 0 -29 -8 -59 -19 -66 -11 -7 -20 -34 -20 -60 0 -26 -10 -54 -23 -62 -16 -10 -20 0 -12 30 10 37 7 40 -17 21 -26 -22 -37 -12 -30 27 2 10 -5 12 -15 6 -9 -6 -34 3 -55 20 -21 17 -27 25 -13 18 136 -69 -546 521 -697 603 -70 38 -87 85 -43 113 30 19 34 74 5 74 -23 0 -27 86 -5 108 8 9 18 1 21 -16 4 -18 15 -32 26 -32z m5334 -43 c3 -16 -12 -30 -35 -31 -23 -2 -41 5 -41 15 0 10 -13 13 -30 6 -36 -14 -39 5 -5 41 29 32 102 11 111 -31z m104 32 c0 -16 20 -38 45 -48 45 -18 20 -30 -45 -22 -50 7 -97 61 -53 61 19 0 30 9 23 20 -7 11 -3 20 9 20 11 0 21 -14 21 -31z m-4697 -69 c38 -90 24 -113 -40 -68 -27 19 -43 51 -43 89 0 84 44 73 83 -21z m827 3 c-8 -52 -2 -103 19 -153 17 -41 24 -85 16 -97 -26 -41 -16 -146 18 -181 30 -32 32 -27 26 77 -4 61 1 111 11 111 22 0 47 -113 30 -140 -8 -12 -1 -37 13 -55 19 -23 20 -28 2 -18 -18 11 -25 -1 -25 -40 0 -51 2 -52 27 -18 26 35 27 35 38 -6 6 -24 5 -43 -2 -43 -7 0 -11 -63 -8 -139 4 -111 -3 -153 -35 -205 -22 -36 -40 -54 -40 -40 0 15 -10 20 -23 12 -16 -10 -20 -4 -11 19 12 30 -4 41 -40 28 -8 -3 -12 -27 -8 -55 6 -50 6 -50 -36 -12 -42 39 -59 85 -22 62 12 -7 20 11 19 44 0 48 -3 51 -21 21 -22 -38 -98 -49 -98 -14 0 12 -9 16 -20 9 -11 -7 -26 15 -33 49 -15 75 -61 103 -173 104 -95 1 -134 25 -134 80 0 40 -33 107 -75 153 -33 35 -32 74 2 109 24 23 23 34 -7 70 -19 24 -41 38 -48 31 -6 -7 -12 -1 -12 12 0 14 -11 22 -25 17 -14 -5 -35 23 -49 63 -33 95 -32 112 4 82 17 -14 30 -46 30 -71 0 -28 15 -51 39 -59 38 -12 161 -161 161 -195 0 -9 -19 -6 -42 6 -76 40 -58 9 68 -123 113 -119 255 -222 171 -124 -52 61 -62 87 -28 74 17 -7 27 -19 22 -27 -5 -8 4 -14 20 -14 38 0 42 -7 -60 101 -53 56 -84 106 -78 123 17 44 40 35 87 -31 24 -33 51 -56 61 -50 22 14 62 -60 43 -79 -8 -8 -2 -11 14 -8 15 4 32 -6 37 -21 7 -18 2 -22 -15 -12 -17 11 -21 8 -12 -7 8 -13 22 -19 31 -14 24 15 67 -43 51 -68 -7 -12 2 -35 19 -53 17 -17 26 -39 20 -50 -10 -16 34 -27 78 -20 9 2 10 -14 4 -36 -10 -30 -4 -37 23 -32 20 4 42 8 50 8 8 1 13 72 13 157 -1 113 -6 143 -19 109 -25 -66 -51 -39 -77 80 -17 81 -17 107 3 121 21 15 21 20 1 28 -33 14 -85 137 -85 202 l0 49 37 -45 37 -46 -9 63 c-7 46 -20 64 -47 64 -21 0 -38 9 -38 20 0 11 9 20 20 20 11 0 21 20 22 45 2 43 3 43 17 -5 l15 -50 15 55 c23 81 36 67 21 -22z m2302 22 c2 -29 -9 -41 -35 -39 -40 3 -44 13 -25 63 17 44 57 28 60 -24z m-557 -15 c-5 -28 -2 -56 8 -62 27 -17 -4 -52 -35 -40 -15 6 -29 0 -30 -14 -1 -13 -3 -55 -5 -92 -2 -38 -15 -73 -31 -78 -15 -5 -22 -1 -16 10 7 10 -1 45 -18 76 -28 55 -27 59 34 112 46 39 61 66 53 96 -8 29 -2 42 19 42 22 0 28 -14 21 -50z m657 -2 c16 6 28 -2 28 -20 0 -17 -8 -25 -19 -19 -10 6 -23 3 -30 -7 -6 -10 4 -24 23 -31 18 -7 40 -1 49 13 13 21 16 21 17 -1 0 -15 -20 -32 -45 -38 -25 -7 -101 -41 -170 -77 l-125 -65 0 86 c0 90 106 152 134 78 6 -15 18 -22 28 -16 10 6 18 1 18 -11 0 -67 40 16 42 86 2 46 7 68 12 48 6 -22 21 -32 38 -26z m-272 2 c0 -15 -22 -45 -50 -66 -47 -38 -73 -100 -30 -74 11 7 20 -7 20 -31 0 -25 -15 -47 -38 -53 -20 -5 -47 -29 -58 -53 -12 -24 -22 -31 -23 -17 0 15 -10 21 -21 14 -11 -7 -20 6 -20 29 0 23 14 47 30 54 17 6 30 33 30 60 0 28 -9 44 -20 37 -11 -7 -20 1 -20 18 0 42 38 60 52 25 6 -17 24 -26 40 -20 15 6 23 18 18 27 -18 30 10 72 51 75 21 1 39 -10 39 -25z m-1851 -192 c-6 -10 4 -12 23 -4 23 8 30 5 21 -10 -8 -12 -45 -28 -83 -35 -38 -7 -67 -20 -64 -29 2 -9 -5 -17 -16 -19 -37 -5 -31 69 12 138 l43 70 37 -47 c21 -25 33 -54 27 -64z m2835 16 c-11 -75 -48 -107 -68 -58 -20 52 -18 108 4 94 11 -7 20 1 20 18 0 17 12 26 26 21 18 -7 24 -33 18 -75z m-1586 -55 c-2 -67 -10 -112 -17 -101 -9 15 -12 193 -3 217 13 35 22 -20 20 -116z m2472 101 c7 -11 1 -20 -13 -20 -14 0 -9 -12 12 -27 21 -15 31 -37 24 -49 -8 -11 -5 -27 7 -34 34 -21 22 -47 -18 -36 -39 10 -61 61 -62 141 0 46 28 60 50 25z m-4478 -65 c15 -47 3 -60 -39 -43 -41 15 -44 81 -3 81 16 0 35 -17 42 -38z m2796 -66 c6 -18 3 -26 -8 -19 -11 7 -20 -2 -20 -19 0 -17 11 -31 24 -31 18 0 19 -5 0 -24 -41 -41 -78 50 -39 99 25 32 28 31 43 -6z m-2096 -100 c-4 -38 -11 -75 -17 -80 -14 -15 -37 112 -24 133 26 41 47 13 41 -53z m1954 43 c33 -25 33 -28 1 -40 -19 -8 -41 -2 -50 12 -37 58 -11 73 49 28z m-3469 -244 c8 5 12 -15 10 -45 -5 -76 -6 -76 -27 -43 -16 25 -19 24 -20 -8 0 -21 -5 -34 -11 -27 -6 6 -5 46 3 88 8 42 18 66 23 52 5 -14 15 -21 22 -17z m763 -97 c0 -37 -58 -94 -82 -80 -32 20 -21 74 13 61 17 -6 35 1 42 18 14 38 27 38 27 1z m2247 -356 c17 -63 16 -75 -8 -75 -12 0 -16 9 -9 20 7 11 -1 15 -16 9 -21 -8 -29 4 -29 40 0 63 46 68 62 6z m-206 -82 c-11 -29 -29 -53 -41 -53 -28 0 -25 87 4 116 37 37 60 -3 37 -63z m-485 -132 c-2 -70 -27 -64 -41 9 -6 32 0 50 16 50 16 0 26 -23 25 -59z"/> <path d="M3221 2810 c-1 -40 35 -75 60 -59 18 11 22 6 14 -15 -14 -37 17 -91 39 -68 9 10 6 21 -7 26 -12 4 -18 27 -12 50 9 34 4 40 -21 30 -20 -7 -41 1 -53 22 -11 19 -20 25 -20 14z"/> <path d="M2853 4467 c-31 -42 -32 -51 -6 -77 26 -26 34 -21 69 38 51 86 -3 118 -63 39z"/> <path d="M2748 4291 c-11 -36 -14 -83 -7 -103 9 -26 17 -9 27 59 18 116 9 136 -20 44z"/> <path d="M2772 4088 c-28 -72 -14 -108 43 -107 53 1 54 2 10 20 -37 14 -43 28 -33 69 14 55 -1 69 -20 18z"/> <path d="M3630 4044 c-7 -8 -29 -15 -47 -16 -18 -1 -56 -3 -84 -5 -53 -3 -154 -87 -235 -193 -245 -324 -259 -349 -165 -301 71 37 107 40 96 6 -10 -31 42 -86 100 -104 70 -21 61 60 -10 86 -54 20 -54 21 -10 34 25 8 45 22 45 31 0 10 26 18 58 18 31 0 69 16 85 35 24 31 23 32 -5 10 -53 -41 -109 -10 -67 36 18 20 27 46 19 58 -7 12 -6 21 4 19 39 -7 54 4 28 20 -20 13 -40 5 -65 -25 -41 -48 -77 -21 -76 57 0 37 2 37 26 7 21 -29 28 -30 44 -6 25 38 176 -11 185 -59 9 -41 64 -42 64 -1 0 20 9 26 25 16 13 -8 3 11 -22 44 -51 65 -89 85 -160 88 -40 1 -44 -4 -23 -29 17 -21 18 -30 2 -30 -12 0 -22 10 -22 21 0 13 -19 17 -45 9 -44 -12 -44 -11 -6 19 21 17 68 31 105 31 36 0 66 8 66 18 0 10 36 32 80 50 44 17 80 35 80 40 0 16 -57 29 -70 16z m-330 -399 c0 -29 -78 -64 -112 -51 -31 11 -31 15 3 39 40 29 109 37 109 12z"/> <path d="M1658 3799 c-46 -29 141 -159 230 -159 15 0 38 -13 52 -30 28 -33 0 -42 -32 -10 -14 14 -32 11 -57 -7 -35 -25 -32 -28 36 -41 47 -9 69 -22 60 -36 -9 -15 1 -19 29 -11 23 6 45 2 48 -8 4 -11 23 -13 43 -5 30 11 23 19 -38 46 -40 18 -70 37 -67 42 18 29 -95 182 -141 192 -28 6 -70 18 -93 28 -23 9 -54 9 -70 -1z"/> <path d="M5755 3723 c-6 -23 -4 -39 5 -33 8 5 20 -8 26 -30 6 -22 2 -45 -8 -51 -10 -6 -18 -22 -17 -35 0 -13 17 -4 38 21 26 31 41 37 48 20 6 -15 10 -11 11 11 1 19 -12 41 -30 47 -17 7 -38 31 -46 53 -15 40 -16 40 -27 -3z"/> <path d="M3104 3415 c3 -25 15 -44 26 -42 11 2 31 -6 44 -17 17 -14 34 -11 56 11 28 28 26 34 -28 62 -82 42 -106 39 -98 -14z"/> <path d="M21 3215 c0 -36 13 -82 30 -104 40 -54 36 -78 -11 -65 -22 6 -36 3 -30 -6 5 -8 14 -49 19 -91 14 -104 37 -118 28 -16 -5 50 0 83 13 80 11 -1 23 35 26 82 4 53 -2 85 -16 85 -12 0 -17 9 -10 20 7 11 2 20 -11 20 -13 0 -18 14 -12 30 7 17 3 30 -8 30 -10 0 -19 -29 -18 -65z"/> <path d="M1047 3127 c-2 -36 3 -43 22 -28 14 11 29 16 35 10 13 -13 136 -49 136 -40 0 4 -43 29 -95 56 l-95 50 -3 -48z"/> <path d="M1978 2767 l-48 -52 50 25 c41 21 46 20 25 -2 -34 -35 -32 -69 3 -40 21 18 41 122 23 122 -2 0 -26 -24 -53 -53z"/> <path d="M1397 2174 c16 -19 22 -34 15 -34 -28 0 64 -123 132 -176 66 -52 15 53 -57 116 -38 33 -60 60 -49 60 11 0 25 -9 32 -20 7 -11 32 -30 56 -43 42 -22 43 -21 10 15 -46 52 -177 130 -139 82z"/> <path d="M1600 2162 c0 -10 18 -39 39 -65 41 -49 57 -21 29 51 -13 34 -68 45 -68 14z"/> <path d="M2 1751 c-2 -130 2 -144 63 -210 l65 -71 -65 59 c-54 48 -98 51 -50 3 8 -9 16 -24 17 -34 2 -10 4 -27 5 -37 3 -22 142 -121 169 -121 10 0 -1 30 -24 67 -51 82 -52 95 -7 79 21 -7 7 19 -36 66 -115 126 -124 142 -102 182 13 25 11 55 -7 96 -26 57 -27 54 -28 -79z"/> <path d="M5249 1739 c-18 -30 9 -195 34 -211 13 -8 17 1 10 24 -6 21 -14 76 -16 123 -5 91 -7 97 -28 64z"/> <path d="M4460 1510 c-38 -14 -137 -41 -219 -60 -82 -18 -165 -42 -185 -52 -28 -15 -36 -12 -37 16 0 34 -2 33 -22 -1 -16 -27 -16 -42 1 -52 15 -9 13 -25 -8 -52 -17 -22 -29 -30 -28 -19 11 82 -48 130 -74 61 -7 -16 -29 -35 -50 -42 -45 -14 -43 -141 2 -169 14 -9 20 -30 14 -48 -7 -18 -5 -32 4 -32 9 0 26 -38 37 -85 l20 -85 3 77 c2 68 6 75 33 52 23 -19 28 -46 19 -99 -9 -56 -4 -80 22 -102 32 -26 33 -24 10 18 -20 38 -18 53 15 95 32 40 41 43 51 18 6 -17 4 -26 -6 -20 -10 6 -29 -3 -42 -19 -22 -27 -15 -38 23 -33 7 1 18 -12 25 -29 7 -17 3 -25 -8 -18 -11 7 -20 -5 -20 -25 0 -67 60 -44 62 23 1 65 6 59 28 -38 l14 -60 22 50 c21 49 22 48 35 -30 9 -53 14 -63 16 -30 4 55 42 130 43 84 0 -45 51 -85 77 -59 24 24 63 -55 63 -126 0 -22 9 -39 20 -39 11 0 19 7 18 15 -9 56 6 113 20 77 8 -21 31 -41 51 -44 19 -3 48 -24 64 -47 16 -22 42 -41 58 -41 16 0 29 -7 29 -15 0 -52 100 -128 129 -99 27 28 21 40 -59 116 -50 47 -90 101 -90 120 0 102 -426 431 -490 378 -22 -19 -23 -10 -5 49 17 55 27 66 48 48 20 -16 35 -16 56 2 24 20 27 16 20 -27 -6 -29 -1 -52 11 -52 11 0 20 10 20 21 0 12 9 16 20 9 29 -18 25 4 -11 59 -21 32 -24 52 -10 61 12 7 21 6 19 -4 -7 -39 4 -54 21 -27 14 22 26 12 53 -44 19 -40 41 -69 50 -64 8 5 22 -11 30 -36 13 -43 14 -44 30 -5 16 42 15 44 26 -53 5 -53 52 -38 54 16 l1 57 21 -57 c16 -43 25 -51 38 -30 14 21 17 19 18 -8 0 -19 9 -35 19 -35 27 0 4 57 -57 140 -85 115 -118 185 -54 115 28 -30 58 -55 69 -55 10 0 29 -13 43 -30 14 -16 34 -30 46 -30 11 0 5 16 -13 37 -18 20 -27 42 -20 50 8 7 5 13 -6 13 -11 0 -37 13 -58 30 -36 27 -34 28 31 17 59 -10 66 -8 44 15 -14 16 -32 28 -40 29 -44 3 -104 35 -104 55 -1 17 -6 16 -17 -2 -31 -48 -118 -8 -128 59 -4 32 -1 63 8 69 10 6 17 2 17 -8 0 -19 95 -16 115 5 7 6 29 -14 51 -44 35 -51 35 -38 1 48 -28 70 26 6 70 -82 25 -50 53 -91 63 -91 9 0 12 -20 6 -45 -8 -36 -5 -39 12 -15 32 45 26 83 -21 134 -52 55 -39 78 26 47 45 -22 45 -22 8 8 -21 17 -31 31 -22 31 44 0 -62 80 -107 81 -47 2 -48 3 -12 19 68 29 -90 20 -170 -10z m-60 -179 c0 -30 -40 -46 -40 -16 0 8 -7 38 -14 65 -12 47 -11 48 20 16 19 -18 34 -47 34 -65z m-460 -138 c0 -46 43 -71 90 -53 39 15 44 12 35 -22 -11 -44 -45 -72 -45 -37 0 14 -17 19 -39 14 -27 -7 -35 -2 -27 17 6 16 -3 29 -22 31 -18 1 -43 3 -57 5 -13 1 -27 18 -31 37 -5 25 2 31 25 23 17 -7 31 -2 31 11 0 13 9 18 20 11 11 -7 20 -24 20 -37z m307 -219 c7 7 13 2 13 -11 0 -12 12 -23 27 -23 14 0 47 -22 73 -50 26 -27 41 -50 33 -50 -16 0 -118 63 -133 82 -5 7 -30 19 -55 27 -25 7 -45 22 -45 33 0 12 14 12 37 -1 21 -11 43 -14 50 -7z"/> <path d="M2384 1308 c-107 -24 -244 -81 -244 -101 0 -6 12 -7 27 -1 15 6 41 -15 61 -48 19 -32 43 -58 53 -58 11 0 19 -8 19 -17 0 -10 -25 -15 -55 -11 -30 4 -39 2 -20 -4 19 -6 35 -25 35 -43 0 -17 6 -26 12 -19 15 14 108 -92 108 -124 0 -37 40 -25 42 13 1 21 5 25 11 10 6 -14 23 -25 39 -25 15 0 28 -9 28 -20 0 -11 -9 -20 -20 -20 -11 0 -20 -19 -20 -41 0 -23 9 -36 20 -29 11 7 20 2 20 -10 0 -12 9 -17 20 -10 11 7 20 -2 20 -20 0 -18 9 -27 19 -21 11 7 13 28 6 47 -11 30 -8 31 21 7 19 -16 35 -20 36 -10 1 9 9 -5 17 -33 14 -47 16 -46 30 25 10 49 7 85 -7 103 -14 16 -26 119 -29 240 -8 266 -16 273 -249 220z m214 -280 c92 -71 -26 -108 -140 -44 -95 53 -105 103 -19 89 48 -7 62 -1 73 34 14 42 14 42 36 -7 11 -27 34 -60 50 -72z"/> <path d="M0 1261 c0 -56 6 -61 68 -61 92 0 131 48 68 83 -94 51 -136 45 -136 -22z"/> <path d="M5718 1230 c-11 -11 -29 -21 -39 -22 -10 -2 -26 -4 -34 -6 -8 -1 -17 -31 -19 -66 -3 -34 -15 -73 -28 -84 -18 -16 -20 -14 -9 8 7 17 0 13 -18 -9 -24 -30 -25 -42 -6 -55 14 -8 18 -16 9 -16 -8 0 -1 -28 17 -62 30 -57 29 -63 -5 -90 -20 -16 -27 -27 -16 -26 40 5 70 -2 66 -17 -2 -8 4 -46 14 -85 l17 -70 17 70 c9 39 21 84 25 100 4 17 9 52 9 78 1 27 8 43 15 36 15 -15 127 47 127 70 0 9 9 16 20 16 45 0 15 -61 -63 -125 -78 -65 -83 -76 -88 -187 -3 -65 -1 -102 4 -83 10 37 38 46 55 19 15 -25 -13 -57 -63 -73 -27 -8 -40 -23 -32 -37 7 -13 -37 27 -99 89 -187 189 -484 304 -484 187 0 -42 98 -66 121 -29 18 30 49 22 49 -12 0 -16 -13 -35 -30 -42 -22 -8 -24 -20 -8 -50 14 -27 28 -34 44 -21 13 11 42 12 64 4 22 -8 51 -10 65 -5 34 13 31 -7 -7 -66 -30 -45 -30 -49 1 -49 18 0 28 -8 22 -19 -6 -10 -3 -24 9 -31 11 -7 20 2 20 19 0 39 32 41 47 3 12 -31 -26 -52 -94 -52 -115 0 -215 -155 -210 -324 2 -61 7 -82 11 -50 5 32 27 75 48 96 22 22 35 47 29 57 -6 9 3 43 19 74 16 31 30 48 30 37 0 -11 9 -7 19 9 16 26 21 25 32 -4 7 -20 -1 -48 -20 -67 -97 -97 -141 -268 -69 -268 36 0 41 9 34 60 -7 45 -1 60 22 60 66 1 92 33 61 73 -27 36 -27 36 13 2 54 -46 62 -44 58 10 -2 24 14 74 35 110 22 36 35 77 30 90 -14 36 30 70 76 60 79 -18 271 -36 280 -28 5 5 -18 26 -51 46 -38 23 -55 47 -48 66 14 36 49 32 82 -9 14 -16 25 -23 25 -14 1 8 20 5 44 -7 40 -22 42 -20 28 34 -22 91 -151 201 -151 130 0 -10 -23 -18 -50 -18 -43 0 -47 5 -26 30 15 18 27 21 32 8 5 -15 15 -14 33 2 14 14 22 36 16 50 -5 14 1 25 14 25 13 0 18 -8 12 -19 -6 -10 -3 -24 7 -30 11 -6 25 -3 31 8 7 10 27 14 45 7 22 -9 28 -5 18 11 -8 13 -4 23 10 23 15 0 10 15 -12 40 -20 22 -55 40 -78 40 -23 0 -33 7 -22 15 11 8 37 47 58 85 22 39 49 77 60 85 12 9 -9 11 -48 4 -52 -8 -64 -5 -48 11 13 13 39 25 59 28 48 7 61 49 21 64 -18 7 -27 21 -20 31 38 62 -175 105 -234 47z m159 -55 c-58 -82 -102 -117 -124 -96 -28 27 -5 91 32 91 19 0 34 8 33 18 -2 22 43 51 78 52 18 0 12 -21 -19 -65z"/> <path d="M1034 1168 c-30 -31 -7 -178 26 -158 8 5 22 -20 30 -55 l15 -65 14 60 13 60 16 -64 c8 -35 28 -74 45 -88 38 -32 19 56 -37 168 -20 41 -31 85 -24 98 9 14 5 17 -10 7 -14 -9 -35 -1 -49 18 -13 18 -31 27 -39 19z"/> <path d="M1570 1008 c-204 -105 -499 -452 -438 -514 20 -19 45 -134 27 -123 -10 6 -13 -3 -7 -20 20 -50 52 -11 39 46 -9 44 -8 47 10 18 11 -19 28 -35 36 -35 22 0 25 96 3 110 -11 7 -20 21 -20 32 0 11 24 -3 54 -30 59 -55 97 -51 66 8 -26 48 -26 86 0 70 29 -18 25 37 -5 69 -20 21 -20 24 0 13 16 -9 26 -1 27 22 2 20 8 10 15 -22 7 -32 26 -63 41 -68 22 -7 25 5 15 54 -9 45 -6 60 10 50 14 -9 18 -5 9 9 -18 29 4 103 29 103 11 0 19 -13 19 -30 0 -16 9 -30 21 -30 14 0 14 12 0 39 -12 21 -21 50 -20 65 0 14 19 -8 40 -49 41 -76 68 -102 45 -42 -9 24 -5 29 12 18 19 -11 23 0 15 46 -5 37 2 75 20 97 17 20 24 25 17 11 -7 -14 -3 -25 9 -25 28 0 26 39 -5 94 -24 43 -28 43 -84 14z"/> <path d="M3110 813 c3 -24 6 -53 7 -65 2 -12 17 -21 34 -21 43 0 31 118 -13 124 -22 3 -31 -9 -28 -38z"/> <path d="M3528 737 c-9 -15 -5 -18 11 -8 18 12 22 5 13 -24 -14 -44 3 -105 30 -105 9 0 11 15 4 33 -9 24 -5 29 12 18 17 -10 14 6 -7 47 -35 69 -42 73 -63 39z"/> <path d="M1091 344 c-16 -92 21 -213 50 -162 11 19 10 59 -1 100 -11 37 -15 83 -9 103 7 19 3 35 -8 35 -11 0 -25 -34 -32 -76z"/> <path d="M5704 352 c-18 -40 -15 -57 17 -93 22 -25 40 -73 42 -107 2 -34 5 -71 8 -82 2 -11 5 -31 7 -45 1 -14 12 -25 23 -25 12 0 17 7 12 16 -6 9 -3 28 6 43 13 20 22 17 40 -16 15 -29 42 -43 82 -43 60 0 80 28 34 47 -20 8 -19 14 1 28 35 25 25 230 -11 237 -15 3 -17 0 -5 -5 37 -19 25 -193 -13 -179 -18 7 -42 -1 -55 -19 -20 -28 -24 -26 -26 10 -2 22 7 41 21 41 41 0 27 180 -17 213 -61 44 -140 34 -166 -21z"/> </g> </svg> 